<svg width="186" height="20" viewBox="0 0 186 20" fill="none" xmlns="http://www.w3.org/2000/svg">
<path d="M14.752 14.7354C14.752 15.4378 14.6208 16.043 14.3584 16.5508C14.1045 17.0586 13.7617 17.4902 13.3301 17.8457C12.8984 18.2012 12.3991 18.4932 11.832 18.7217C11.2734 18.9417 10.6895 19.1152 10.0801 19.2422C9.4707 19.3691 8.8571 19.4538 8.23926 19.4961C7.62988 19.5384 7.05859 19.5596 6.52539 19.5596C6.00065 19.5596 5.45475 19.5384 4.8877 19.4961C4.3291 19.4622 3.77051 19.3988 3.21191 19.3057C2.65332 19.2126 2.10319 19.0898 1.56152 18.9375C1.01986 18.7767 0.507812 18.5778 0.0253906 18.3408L0 1.98926C0.473958 1.7946 0.977539 1.62109 1.51074 1.46875C2.04395 1.30794 2.58561 1.17676 3.13574 1.0752C3.69434 0.965169 4.2487 0.884766 4.79883 0.833984C5.34896 0.77474 5.88216 0.745117 6.39844 0.745117C6.99935 0.745117 7.60449 0.783203 8.21387 0.859375C8.83171 0.935547 9.42415 1.0625 9.99121 1.24023C10.5583 1.41797 11.0872 1.65072 11.5781 1.93848C12.069 2.21777 12.4964 2.56478 12.8604 2.97949C13.2327 3.39421 13.5205 3.87663 13.7236 4.42676C13.9352 4.97689 14.041 5.61165 14.041 6.33105C14.041 6.80501 13.9733 7.24935 13.8379 7.66406C13.7025 8.07878 13.5078 8.45117 13.2539 8.78125C13 9.11133 12.6911 9.39486 12.3271 9.63184C11.9632 9.86035 11.5527 10.0296 11.0957 10.1396C11.6458 10.2835 12.1452 10.4951 12.5938 10.7744C13.0508 11.0537 13.4359 11.3923 13.749 11.79C14.0706 12.1878 14.3161 12.6364 14.4854 13.1357C14.6631 13.6351 14.752 14.1683 14.752 14.7354ZM8.30273 7.49902C8.30273 7.25358 8.25195 7.04622 8.15039 6.87695C8.04883 6.69922 7.92188 6.55534 7.76953 6.44531C7.62565 6.33529 7.46484 6.25488 7.28711 6.2041C7.11784 6.15332 6.96549 6.12793 6.83008 6.12793C6.66081 6.12793 6.49577 6.15332 6.33496 6.2041C6.17415 6.25488 6.01758 6.31413 5.86523 6.38184L5.78906 9.2002C5.98372 9.2002 6.22494 9.18327 6.5127 9.14941C6.80046 9.11556 7.07552 9.04362 7.33789 8.93359C7.60872 8.8151 7.83724 8.64583 8.02344 8.42578C8.20964 8.19727 8.30273 7.88835 8.30273 7.49902ZM6.5 11.6377C6.25456 11.6377 6.01758 11.6631 5.78906 11.7139L5.73828 14.6084C5.86523 14.6338 5.98796 14.6592 6.10645 14.6846C6.2334 14.7015 6.35612 14.71 6.47461 14.71C6.65234 14.71 6.84701 14.693 7.05859 14.6592C7.27018 14.6169 7.46908 14.5407 7.65527 14.4307C7.84147 14.3122 7.99381 14.1556 8.1123 13.9609C8.23926 13.7663 8.30273 13.5081 8.30273 13.1865C8.30273 12.8649 8.23926 12.6025 8.1123 12.3994C7.99381 12.1963 7.8457 12.0397 7.66797 11.9297C7.49023 11.8112 7.29557 11.735 7.08398 11.7012C6.8724 11.6589 6.67773 11.6377 6.5 11.6377Z" fill="#E81B42"/>
<path d="M22.0645 1.37988L21.1758 18.6709L15.8184 18.9502L15.3105 1.73535L22.0645 1.37988Z" fill="#E81B42"/>
<path d="M34.2393 12.5264L33.7061 18.1631L23.0166 19.001L23.4229 0.87207H30.0244L29.085 12.5264H34.2393Z" fill="#E81B42"/>
<path d="M45.9697 12.5264L45.4365 18.1631L34.7471 19.001L35.1533 0.87207H41.7549L40.8154 12.5264H45.9697Z" fill="#E81B42"/>
<path d="M60.1885 2.06543L54.2217 11.8154L54.3994 19.001H47.874L48.0264 11.8662L43.3799 2.44629L49.8545 1.63379L51.8857 7.11816L54.0947 1.63379L60.1885 2.06543Z" fill="#E81B42"/>
<path d="M78.3555 12.501C78.3555 13.6605 78.1523 14.6761 77.7461 15.5479C77.3483 16.4111 76.7982 17.1305 76.0957 17.7061C75.4017 18.2816 74.585 18.7132 73.6455 19.001C72.7145 19.2887 71.7116 19.4326 70.6367 19.4326C70.222 19.4326 69.765 19.3776 69.2656 19.2676C68.7747 19.1576 68.2754 19.0221 67.7676 18.8613C67.2598 18.6921 66.7689 18.5143 66.2949 18.3281C65.8294 18.1335 65.4147 17.9515 65.0508 17.7822L65.6094 12.5518C66.3288 12.9834 67.1244 13.3135 67.9961 13.542C68.8763 13.762 69.7396 13.8721 70.5859 13.8721C70.7467 13.8721 70.9414 13.8678 71.1699 13.8594C71.3984 13.8424 71.6143 13.8044 71.8174 13.7451C72.029 13.6774 72.2067 13.5801 72.3506 13.4531C72.4945 13.3262 72.5664 13.1442 72.5664 12.9072C72.5664 12.7464 72.5156 12.611 72.4141 12.501C72.3125 12.3825 72.1813 12.2894 72.0205 12.2217C71.8597 12.1455 71.6777 12.0905 71.4746 12.0566C71.2715 12.0143 71.0726 11.9847 70.8779 11.9678C70.6833 11.9508 70.5013 11.9424 70.332 11.9424C70.1628 11.9424 70.0273 11.9424 69.9258 11.9424C69.1979 11.9424 68.5335 11.8154 67.9326 11.5615C67.3402 11.3076 66.8281 10.9564 66.3965 10.5078C65.9733 10.0508 65.6432 9.51335 65.4062 8.89551C65.1693 8.26921 65.0508 7.59212 65.0508 6.86426C65.0508 5.86556 65.2497 4.97266 65.6475 4.18555C66.0537 3.38997 66.5911 2.71712 67.2598 2.16699C67.9369 1.6084 68.7113 1.18099 69.583 0.884766C70.4548 0.588542 71.3561 0.44043 72.2871 0.44043C72.7018 0.44043 73.1292 0.457357 73.5693 0.491211C74.0094 0.516602 74.4453 0.567383 74.877 0.643555C75.3171 0.719727 75.7445 0.817057 76.1592 0.935547C76.5739 1.05404 76.9674 1.20215 77.3398 1.37988L76.8574 6.53418C76.2819 6.33952 75.6768 6.17871 75.042 6.05176C74.4157 5.91634 73.8021 5.84863 73.2012 5.84863C73.0911 5.84863 72.9473 5.85286 72.7695 5.86133C72.6003 5.86133 72.4183 5.87402 72.2236 5.89941C72.0374 5.91634 71.847 5.94596 71.6523 5.98828C71.4577 6.0306 71.2842 6.08984 71.1318 6.16602C70.9795 6.23372 70.8568 6.32682 70.7637 6.44531C70.6706 6.5638 70.6283 6.70345 70.6367 6.86426C70.6452 7.05046 70.7129 7.2028 70.8398 7.32129C70.9753 7.43131 71.1445 7.52018 71.3477 7.58789C71.5592 7.64714 71.7878 7.68945 72.0332 7.71484C72.2871 7.74023 72.5368 7.75716 72.7822 7.76562C73.0277 7.76562 73.2562 7.76562 73.4678 7.76562C73.6794 7.75716 73.8529 7.76139 73.9883 7.77832C74.6654 7.82064 75.2747 7.96452 75.8164 8.20996C76.3581 8.4554 76.8151 8.78125 77.1875 9.1875C77.5684 9.59375 77.8561 10.0804 78.0508 10.6475C78.2539 11.2061 78.3555 11.8239 78.3555 12.501Z" fill="black"/>
<path d="M94.9229 12.8311C94.9229 13.7874 94.9102 14.7354 94.8848 15.6748C94.8678 16.6058 94.8382 17.5452 94.7959 18.4932L87.4834 18.3662C87.7373 16.8682 87.9574 15.3743 88.1436 13.8848C88.3298 12.3867 88.4229 10.876 88.4229 9.35254C88.4229 9.24251 88.4186 9.06478 88.4102 8.81934C88.4017 8.57389 88.3848 8.29883 88.3594 7.99414C88.334 7.68099 88.2959 7.36361 88.2451 7.04199C88.2028 6.71191 88.1393 6.41146 88.0547 6.14062C87.9785 5.86979 87.8812 5.64974 87.7627 5.48047C87.6527 5.30273 87.5173 5.21387 87.3564 5.21387C87.0687 5.21387 86.8232 5.2985 86.6201 5.46777C86.4255 5.63704 86.2604 5.8571 86.125 6.12793C85.998 6.3903 85.8965 6.68652 85.8203 7.0166C85.7441 7.34668 85.6849 7.67676 85.6426 8.00684C85.6087 8.33691 85.5833 8.65007 85.5664 8.94629C85.5579 9.23405 85.5537 9.47103 85.5537 9.65723C85.5114 11.1553 85.4775 12.6449 85.4521 14.126C85.4268 15.5986 85.3929 17.0882 85.3506 18.5947L78.876 18.874C79.0452 15.8864 79.2061 12.9157 79.3584 9.96191C79.5192 7.00814 79.6462 4.03743 79.7393 1.0498L85.7314 0.745117L85.6807 2.77637C85.9176 2.48861 86.1715 2.21777 86.4424 1.96387C86.7217 1.70996 87.0179 1.49414 87.3311 1.31641C87.6442 1.13021 87.9743 0.986328 88.3213 0.884766C88.6768 0.77474 89.0492 0.719727 89.4385 0.719727C90.1579 0.719727 90.7884 0.838216 91.3301 1.0752C91.8717 1.31217 92.3372 1.63379 92.7266 2.04004C93.1159 2.44629 93.4417 2.92871 93.7041 3.4873C93.9665 4.03743 94.1781 4.62565 94.3389 5.25195C94.4997 5.87826 94.6224 6.53418 94.707 7.21973C94.7917 7.89681 94.8467 8.56543 94.8721 9.22559C94.9059 9.88574 94.9229 10.5247 94.9229 11.1426C94.9229 11.7604 94.9229 12.3232 94.9229 12.8311Z" fill="black"/>
<path d="M110.297 8.99707C110.297 9.7334 110.246 10.4697 110.145 11.2061C108.697 11.2992 107.258 11.4515 105.828 11.6631C104.398 11.8662 102.967 12.0693 101.537 12.2725C101.757 12.8818 102.1 13.3685 102.565 13.7324C103.039 14.0964 103.602 14.2783 104.254 14.2783C104.592 14.2783 104.961 14.2148 105.358 14.0879C105.765 13.9609 106.167 13.8044 106.564 13.6182C106.962 13.4235 107.343 13.2161 107.707 12.9961C108.071 12.776 108.384 12.5771 108.646 12.3994L108.037 18.1631C107.707 18.417 107.347 18.6328 106.958 18.8105C106.577 18.9883 106.179 19.1322 105.765 19.2422C105.35 19.3522 104.931 19.4326 104.508 19.4834C104.085 19.5342 103.67 19.5596 103.264 19.5596C102.426 19.5596 101.66 19.4453 100.966 19.2168C100.272 18.9883 99.6413 18.6709 99.0742 18.2646C98.5156 17.8499 98.0247 17.3633 97.6016 16.8047C97.1784 16.2461 96.8271 15.6367 96.5479 14.9766C96.2686 14.3164 96.057 13.6182 95.9131 12.8818C95.7692 12.1455 95.6973 11.4007 95.6973 10.6475C95.6973 9.86035 95.7692 9.07324 95.9131 8.28613C96.057 7.49902 96.2728 6.74154 96.5605 6.01367C96.8568 5.28581 97.2249 4.61296 97.665 3.99512C98.1136 3.36882 98.6341 2.82292 99.2266 2.35742C99.819 1.89193 100.488 1.52799 101.232 1.26562C101.986 1.00326 102.815 0.87207 103.721 0.87207C104.474 0.87207 105.16 0.977865 105.777 1.18945C106.404 1.39258 106.958 1.68034 107.44 2.05273C107.931 2.41667 108.354 2.85254 108.71 3.36035C109.074 3.86816 109.37 4.42676 109.599 5.03613C109.836 5.63704 110.009 6.27604 110.119 6.95312C110.238 7.62174 110.297 8.30306 110.297 8.99707ZM105.219 8.33691C105.219 8.09994 105.193 7.85872 105.143 7.61328C105.092 7.35938 105.007 7.13086 104.889 6.92773C104.779 6.72461 104.631 6.55957 104.444 6.43262C104.258 6.2972 104.025 6.22949 103.746 6.22949C103.408 6.22949 103.107 6.32259 102.845 6.50879C102.591 6.68652 102.371 6.91504 102.185 7.19434C101.998 7.46517 101.846 7.76139 101.728 8.08301C101.609 8.40462 101.52 8.70085 101.461 8.97168L105.219 8.61621V8.33691Z" fill="black"/>
<path d="M126.433 18.1631L120.136 18.9756L119.374 16.1064H116.479L115.845 18.9756L109.37 18.3408L114.423 1.43066L121.481 1.0752L126.433 18.1631ZM118.917 12.2217L117.952 7.80371L117.013 12.2217H118.917Z" fill="black"/>
<path d="M142.302 2.85254L136.69 9.53027L141.845 18.2646L135.954 19.3057L132.095 14.0752L131.892 19.0518L126.61 19.2549L127.017 1.0752L132.933 1.40527L132.476 6.63574L136.157 1.3291L142.302 2.85254Z" fill="black"/>
<path d="M155.518 8.99707C155.518 9.7334 155.467 10.4697 155.365 11.2061C153.918 11.2992 152.479 11.4515 151.049 11.6631C149.618 11.8662 148.188 12.0693 146.758 12.2725C146.978 12.8818 147.321 13.3685 147.786 13.7324C148.26 14.0964 148.823 14.2783 149.475 14.2783C149.813 14.2783 150.181 14.2148 150.579 14.0879C150.985 13.9609 151.387 13.8044 151.785 13.6182C152.183 13.4235 152.564 13.2161 152.928 12.9961C153.292 12.776 153.605 12.5771 153.867 12.3994L153.258 18.1631C152.928 18.417 152.568 18.6328 152.179 18.8105C151.798 18.9883 151.4 19.1322 150.985 19.2422C150.571 19.3522 150.152 19.4326 149.729 19.4834C149.305 19.5342 148.891 19.5596 148.484 19.5596C147.646 19.5596 146.881 19.4453 146.187 19.2168C145.493 18.9883 144.862 18.6709 144.295 18.2646C143.736 17.8499 143.245 17.3633 142.822 16.8047C142.399 16.2461 142.048 15.6367 141.769 14.9766C141.489 14.3164 141.278 13.6182 141.134 12.8818C140.99 12.1455 140.918 11.4007 140.918 10.6475C140.918 9.86035 140.99 9.07324 141.134 8.28613C141.278 7.49902 141.493 6.74154 141.781 6.01367C142.077 5.28581 142.446 4.61296 142.886 3.99512C143.334 3.36882 143.855 2.82292 144.447 2.35742C145.04 1.89193 145.708 1.52799 146.453 1.26562C147.206 1.00326 148.036 0.87207 148.941 0.87207C149.695 0.87207 150.38 0.977865 150.998 1.18945C151.624 1.39258 152.179 1.68034 152.661 2.05273C153.152 2.41667 153.575 2.85254 153.931 3.36035C154.295 3.86816 154.591 4.42676 154.819 5.03613C155.056 5.63704 155.23 6.27604 155.34 6.95312C155.458 7.62174 155.518 8.30306 155.518 8.99707ZM150.439 8.33691C150.439 8.09994 150.414 7.85872 150.363 7.61328C150.312 7.35938 150.228 7.13086 150.109 6.92773C149.999 6.72461 149.851 6.55957 149.665 6.43262C149.479 6.2972 149.246 6.22949 148.967 6.22949C148.628 6.22949 148.328 6.32259 148.065 6.50879C147.812 6.68652 147.591 6.91504 147.405 7.19434C147.219 7.46517 147.067 7.76139 146.948 8.08301C146.83 8.40462 146.741 8.70085 146.682 8.97168L150.439 8.61621V8.33691Z" fill="black"/>
<path d="M171.234 7.0166C171.234 7.67676 171.175 8.27767 171.057 8.81934C170.947 9.35254 170.769 9.84342 170.523 10.292C170.278 10.7406 169.961 11.1553 169.571 11.5361C169.182 11.917 168.712 12.2809 168.162 12.6279L171.184 18.0107L165.471 19.1279L163.516 13.7197L161.941 13.7705L161.713 19.0518H156.254C156.296 17.1221 156.334 15.2008 156.368 13.2881C156.41 11.3753 156.457 9.4541 156.508 7.52441C156.525 6.55111 156.542 5.58626 156.559 4.62988C156.576 3.6735 156.609 2.70866 156.66 1.73535C157.253 1.5153 157.837 1.33333 158.412 1.18945C158.988 1.04557 159.563 0.935547 160.139 0.859375C160.723 0.77474 161.311 0.719727 161.903 0.694336C162.504 0.660482 163.118 0.643555 163.744 0.643555C164.709 0.643555 165.64 0.778971 166.537 1.0498C167.443 1.31217 168.243 1.70996 168.937 2.24316C169.631 2.77637 170.185 3.44076 170.6 4.23633C171.023 5.0319 171.234 5.95866 171.234 7.0166ZM165.547 7.42285C165.547 7.06738 165.496 6.74154 165.395 6.44531C165.301 6.14909 165.158 5.89518 164.963 5.68359C164.777 5.46354 164.54 5.29427 164.252 5.17578C163.973 5.04883 163.643 4.98535 163.262 4.98535C163.092 4.98535 162.927 4.99805 162.767 5.02344C162.606 5.04036 162.449 5.06999 162.297 5.1123L162.094 9.83496H162.398C162.762 9.83496 163.131 9.78841 163.503 9.69531C163.884 9.60221 164.222 9.45833 164.519 9.26367C164.823 9.06901 165.069 8.81934 165.255 8.51465C165.45 8.20996 165.547 7.84603 165.547 7.42285Z" fill="black"/>
<path d="M185.136 12.7549C185.136 13.9144 184.933 14.9173 184.526 15.7637C184.129 16.6016 183.578 17.2956 182.876 17.8457C182.182 18.3874 181.365 18.7894 180.426 19.0518C179.495 19.3057 178.492 19.4326 177.417 19.4326C177.002 19.4326 176.545 19.3776 176.046 19.2676C175.555 19.1576 175.056 19.0221 174.548 18.8613C174.04 18.6921 173.549 18.5143 173.075 18.3281C172.61 18.1335 172.195 17.9515 171.831 17.7822L172.39 12.8057C173.109 13.2373 173.905 13.5674 174.776 13.7959C175.657 14.016 176.52 14.126 177.366 14.126C177.527 14.126 177.722 14.1217 177.95 14.1133C178.179 14.0964 178.395 14.0583 178.598 13.999C178.809 13.9313 178.987 13.834 179.131 13.707C179.275 13.5801 179.347 13.3981 179.347 13.1611C179.347 13.0003 179.296 12.8649 179.194 12.7549C179.093 12.6364 178.962 12.5433 178.801 12.4756C178.64 12.3994 178.458 12.3444 178.255 12.3105C178.052 12.2682 177.853 12.2386 177.658 12.2217C177.464 12.2048 177.282 12.1963 177.112 12.1963C176.943 12.1963 176.808 12.1963 176.706 12.1963C175.978 12.1963 175.314 12.082 174.713 11.8535C174.12 11.625 173.608 11.3034 173.177 10.8887C172.754 10.4655 172.424 9.95768 172.187 9.36523C171.95 8.76432 171.831 8.09994 171.831 7.37207C171.831 6.37337 172.03 5.48047 172.428 4.69336C172.834 3.89779 173.371 3.22493 174.04 2.6748C174.717 2.11621 175.492 1.6888 176.363 1.39258C177.235 1.09635 178.136 0.948242 179.067 0.948242C179.482 0.948242 179.91 0.965169 180.35 0.999023C180.79 1.02441 181.226 1.0752 181.657 1.15137C182.097 1.22754 182.525 1.32487 182.939 1.44336C183.354 1.56185 183.748 1.70996 184.12 1.8877L183.638 7.04199C183.062 6.84733 182.457 6.68652 181.822 6.55957C181.196 6.42415 180.582 6.35645 179.981 6.35645C179.871 6.35645 179.728 6.36068 179.55 6.36914C179.381 6.36914 179.199 6.38184 179.004 6.40723C178.818 6.42415 178.627 6.45378 178.433 6.49609C178.238 6.53841 178.064 6.59766 177.912 6.67383C177.76 6.74154 177.637 6.83464 177.544 6.95312C177.451 7.07161 177.409 7.21126 177.417 7.37207C177.425 7.55827 177.493 7.70215 177.62 7.80371C177.756 7.90527 177.925 7.98145 178.128 8.03223C178.34 8.07454 178.568 8.0957 178.813 8.0957C179.067 8.0957 179.317 8.09147 179.562 8.08301C179.808 8.06608 180.036 8.05339 180.248 8.04492C180.46 8.02799 180.633 8.02376 180.769 8.03223C181.446 8.07454 182.055 8.21842 182.597 8.46387C183.138 8.70931 183.595 9.03516 183.968 9.44141C184.349 9.84766 184.636 10.3343 184.831 10.9014C185.034 11.46 185.136 12.0778 185.136 12.7549Z" fill="black"/>
</svg>
