<svg width="112" height="113" viewBox="0 0 112 113" fill="none" xmlns="http://www.w3.org/2000/svg">
<rect y="0.5" width="112" height="112" rx="56" fill="#F5FAFF"/>
<path fill-rule="evenodd" clip-rule="evenodd" d="M33.8563 70.1259C27.2692 59.44 29.2692 45.4896 38.6973 37.0916L39.2838 36.5845C49.6104 27.9167 64.8495 28.5807 74.383 38.1138C83.9165 47.647 84.5812 62.886 75.9138 73.213C67.5798 83.1428 53.2768 85.3629 42.3726 78.6419L41.824 78.292L35.0964 79.7879C33.7567 80.0856 32.5526 78.9838 32.6689 77.6675L32.7102 77.4017L34.2027 70.6707L33.8563 70.1259ZM72.8499 70.6415C80.1838 61.9033 79.6215 49.0088 71.5546 40.9423C63.4878 32.8758 50.5933 32.314 41.8554 39.6482C33.1176 46.9825 31.4357 59.7792 37.9818 69.1222C38.3039 69.5818 38.418 70.1557 38.2962 70.7036L37.296 75.2013L41.7948 74.2019C42.2513 74.1005 42.7259 74.1628 43.1375 74.3727L43.3762 74.5163C52.7194 81.062 65.516 79.3796 72.8499 70.6415Z" fill="#007AEA"/>
<path fill-rule="evenodd" clip-rule="evenodd" d="M51.9968 45.4441C52.7488 43.9202 54.3007 42.9554 56 42.9554C57.6993 42.9554 59.2512 43.9202 60.0033 45.4443L61.5203 48.5196C61.5879 48.6565 61.7185 48.7515 61.8696 48.7734L65.2628 49.2668C66.9439 49.5111 68.3407 50.6885 68.8659 52.3042C69.3911 53.9198 68.9537 55.6935 67.7376 56.8796L65.2815 59.2754C65.1723 59.3819 65.1224 59.5354 65.1482 59.6858L65.7279 63.0647C66.0152 64.7393 65.3269 66.4318 63.9524 67.4305C62.5779 68.4293 60.7555 68.5612 59.2516 67.7708L56.2159 66.1753C56.0808 66.1043 55.9194 66.1043 55.7843 66.1753L52.7487 67.7708C51.2447 68.5612 49.4224 68.4293 48.0479 67.4305C46.6734 66.4318 45.9851 64.7393 46.2723 63.0647L46.852 59.6858C46.8778 59.5354 46.8279 59.3819 46.7186 59.2753L44.2627 56.8797C43.0465 55.6935 42.6091 53.9198 43.1343 52.3042C43.6595 50.6885 45.0563 49.5111 46.7374 49.2668L50.1307 48.7734C50.2818 48.7515 50.4124 48.6565 50.4799 48.5197L51.9968 45.4441ZM56.4161 47.2141C56.3379 47.0557 56.1766 46.9554 56 46.9554C55.8233 46.9554 55.662 47.0557 55.584 47.2138L54.0672 50.2892C53.4171 51.607 52.1601 52.5204 50.706 52.7318L47.3127 53.2251C47.1381 53.2505 46.9929 53.3729 46.9383 53.5407C46.8838 53.7086 46.9292 53.8929 47.0556 54.0162L49.5116 56.4118C50.563 57.4373 51.0427 58.9145 50.7943 60.3621L50.2147 63.741C50.1849 63.915 50.2564 64.0908 50.3992 64.1946C50.542 64.2984 50.7314 64.3121 50.8877 64.23L53.9233 62.6345C55.2235 61.9512 56.7766 61.9512 58.0768 62.6345L61.1125 64.23C61.2687 64.3121 61.4581 64.2984 61.6009 64.1946C61.7438 64.0908 61.8153 63.915 61.7854 63.7409L61.2058 60.3621C60.9575 58.9145 61.4371 57.4373 62.4885 56.4119L64.9446 54.0162C65.0709 53.8929 65.1164 53.7086 65.0618 53.5407C65.0072 53.3729 64.8621 53.2505 64.6873 53.2251L61.2942 52.7318C59.8401 52.5204 58.5831 51.607 57.933 50.2892L56.4161 47.2141Z" fill="#007AEA"/>
</svg>
