<svg width="112" height="113" viewBox="0 0 112 113" fill="none" xmlns="http://www.w3.org/2000/svg">
<rect y="0.5" width="112" height="112" rx="56" fill="#F5FAFF"/>
<path d="M77.3333 56.5V77.8333" stroke="#007AEA" stroke-width="4" stroke-linecap="round" stroke-linejoin="round"/>
<path d="M63.2 63.62V77.8333" stroke="#007AEA" stroke-width="4" stroke-linecap="round" stroke-linejoin="round"/>
<path d="M34.6667 69.8334V77.8334" stroke="#007AEA" stroke-width="4" stroke-linecap="round" stroke-linejoin="round"/>
<path d="M48.8 60.7667V77.8334" stroke="#007AEA" stroke-width="4" stroke-linecap="round" stroke-linejoin="round"/>
<path d="M66.5051 47.1896C68.3275 49.012 68.3275 51.9668 66.5051 53.7892C64.6826 55.6117 61.7278 55.6117 59.9054 53.7892C58.083 51.9668 58.083 49.012 59.9054 47.1896C61.7279 45.3671 64.6826 45.3671 66.5051 47.1896" stroke="#007AEA" stroke-width="4" stroke-linecap="round" stroke-linejoin="round"/>
<path d="M80.9131 35.1815C82.7355 37.004 82.7355 39.9588 80.9131 41.7812C79.0906 43.6036 76.1358 43.6036 74.3134 41.7812C72.491 39.9587 72.491 37.004 74.3134 35.1815C76.1359 33.3591 79.0906 33.3591 80.9131 35.1815" stroke="#007AEA" stroke-width="4" stroke-linecap="round" stroke-linejoin="round"/>
<path d="M37.6865 49.5735C39.509 51.3959 39.509 54.3507 37.6865 56.1732C35.8641 57.9956 32.9093 57.9956 31.0869 56.1732C29.2644 54.3507 29.2644 51.3959 31.0869 49.5735C32.9093 47.7511 35.8641 47.7511 37.6865 49.5735" stroke="#007AEA" stroke-width="4" stroke-linecap="round" stroke-linejoin="round"/>
<path d="M52.0971 37.5683C53.9195 39.3907 53.9195 42.3455 52.0971 44.1679C50.2746 45.9904 47.3198 45.9904 45.4974 44.1679C43.675 42.3455 43.675 39.3907 45.4974 37.5683C47.3199 35.7458 50.2746 35.7458 52.0971 37.5683" stroke="#007AEA" stroke-width="4" stroke-linecap="round" stroke-linejoin="round"/>
<path d="M74.0533 41.4601L66.7733 47.5134" stroke="#007AEA" stroke-width="4" stroke-linecap="round" stroke-linejoin="round"/>
<path d="M59.3067 47.9134L52.6667 43.4601" stroke="#007AEA" stroke-width="4" stroke-linecap="round" stroke-linejoin="round"/>
<path d="M37.9733 49.9133L45.2267 43.86" stroke="#007AEA" stroke-width="4" stroke-linecap="round" stroke-linejoin="round"/>
</svg>
