<svg width="112" height="113" viewBox="0 0 112 113" fill="none" xmlns="http://www.w3.org/2000/svg">
<rect y="0.5" width="112" height="112" rx="56" fill="#F5FAFF"/>
<path d="M74.9894 61.5106C78.4507 64.972 78.0774 70.8093 73.8747 73.7613C71.2001 75.6386 67.4641 75.6386 64.7894 73.7613C60.5841 70.812 60.2134 64.972 63.6747 61.5106C66.8001 58.3853 71.8667 58.3853 74.9894 61.5106" stroke="#007AEA" stroke-width="4" stroke-linecap="round" stroke-linejoin="round"/>
<path d="M80 77.8333L74.9866 72.8199" stroke="#007AEA" stroke-width="4" stroke-linecap="round" stroke-linejoin="round"/>
<path d="M42.6667 59.1667H53.3334" stroke="#007AEA" stroke-width="4" stroke-linecap="round" stroke-linejoin="round"/>
<path d="M42.6667 48.5H64" stroke="#007AEA" stroke-width="4" stroke-linecap="round" stroke-linejoin="round"/>
<path d="M74.6667 51.1666V43.1666C74.6667 38.748 71.0853 35.1666 66.6667 35.1666H40C35.5813 35.1666 32 38.748 32 43.1666V67.1666C32 71.5853 35.5813 75.1666 40 75.1666H53.3333" stroke="#007AEA" stroke-width="4" stroke-linecap="round" stroke-linejoin="round"/>
</svg>
