<svg width="208" height="40" viewBox="0 0 208 40" fill="none" xmlns="http://www.w3.org/2000/svg">
<g clip-path="url(#clip0_1_323)">
<path d="M20.0334 39.9991C31.0976 39.9991 40.0668 31.045 40.0668 19.9995C40.0668 8.95409 31.0976 0 20.0334 0C8.96927 0 0 8.95409 0 19.9995C0 31.045 8.96927 39.9991 20.0334 39.9991Z" fill="#007AEA"/>
<path d="M27.9578 19.8127C27.927 19.8699 27.8756 19.9134 27.814 19.9345C27.7525 19.9557 27.6852 19.9528 27.6257 19.9267C27.5661 19.9005 27.5186 19.8529 27.4926 19.7933C27.4666 19.7338 27.464 19.6666 27.4854 19.6052C27.8029 18.395 28.2573 16.5435 28.2573 15.8587C28.2573 15.4163 28.0164 15.0456 27.7434 15.1776C27.4259 15.3323 27.0904 15.7719 26.8864 15.9841C25.9037 17.0037 24.9674 18.0696 24.0518 19.1515C22.8972 20.5192 21.8107 21.9548 20.2252 22.8678C17.7063 24.3176 15.0863 24.3997 12.5258 23.0971C10.5766 22.1067 9.66953 20.2523 9.62418 18.1602C9.58166 16.1794 9.76778 14.1759 10.0834 12.2111C10.1049 12.0472 10.1658 11.8909 10.261 11.7556C10.3013 11.6978 10.3578 11.6532 10.4233 11.6272C10.4889 11.6012 10.5606 11.595 10.6297 11.6094C10.6987 11.6238 10.762 11.658 10.8117 11.708C10.8614 11.758 10.8953 11.8214 10.9092 11.8904C10.9186 11.9356 10.9252 11.9813 10.929 12.0272C10.9715 12.5234 10.9602 13.0252 10.981 13.5241C11.0962 16.3822 12.4842 17.7687 15.3329 18.0017C17.815 18.2045 19.8908 17.2688 21.703 15.7379C23.4037 14.2957 24.9797 12.7007 26.6209 11.184C27.0407 10.7859 27.4888 10.4187 27.9616 10.085C29.0009 9.37667 30.198 9.80208 30.3539 11.0283C30.4902 12.1196 30.4615 13.2251 30.2689 14.3079C29.9089 16.2887 29.0076 18.0884 27.9578 19.8023V19.8127Z" fill="#21619C"/>
<path d="M20.1666 29.8253C20.6598 28.8217 21.1492 27.8699 21.5951 26.9012C21.855 26.3353 22.162 26.2249 22.6836 26.5881L26.5243 29.2046C26.9155 29.4715 27.1064 29.8404 26.8919 30.2893C26.3042 31.5212 25.6957 32.7418 25.0589 34.0321C25.0336 34.0836 24.9975 34.1291 24.953 34.1654C24.9085 34.2017 24.8567 34.228 24.8011 34.2425C24.7455 34.257 24.6874 34.2594 24.6308 34.2494C24.5742 34.2395 24.5204 34.2175 24.4731 34.1849L19.9095 31.0458C19.6903 31.4373 19.5231 31.724 19.3672 32.0173C18.9845 32.7351 18.5971 33.4511 18.2334 34.1774C18.0066 34.6283 17.7478 34.6292 17.3623 34.3537C16.0159 33.3926 14.643 32.4673 13.3108 31.4854C13.1455 31.3637 13.0359 30.9345 13.1218 30.7449C13.6547 29.5461 14.2641 28.3821 14.8159 27.1917C15.0597 26.6645 15.362 26.6333 15.8033 26.9276C17.212 27.8727 18.6331 28.8094 20.1666 29.8253Z" fill="#21619C"/>
<path d="M28.8858 19.4865C28.852 19.5378 28.8011 19.5753 28.7422 19.5926C28.6833 19.6098 28.6202 19.6056 28.5641 19.5806C28.508 19.5557 28.4627 19.5117 28.4361 19.4564C28.4095 19.4012 28.4034 19.3383 28.419 19.279C28.7365 18.0688 29.1909 16.2172 29.1909 15.5324C29.1909 15.0901 28.95 14.7194 28.6769 14.8515C28.3595 15.0061 28.0241 15.4457 27.82 15.6579C26.8374 16.6775 25.9001 17.7434 24.9855 18.8253C23.8309 20.193 22.7443 21.6286 21.1589 22.5417C18.6399 23.9914 16.0199 24.0735 13.4594 22.7718C11.5102 21.7805 10.6031 19.9261 10.5578 17.834C10.5153 15.8532 10.7014 13.8497 11.0169 11.8849C11.0385 11.721 11.0994 11.5647 11.1946 11.4294C11.2349 11.3716 11.2914 11.327 11.357 11.301C11.4225 11.275 11.4942 11.2688 11.5633 11.2832C11.6323 11.2976 11.6956 11.3319 11.7453 11.3818C11.795 11.4318 11.8289 11.4952 11.8428 11.5643C11.8513 11.6095 11.8579 11.6586 11.8626 11.701C11.9051 12.1981 11.8938 12.699 11.9145 13.1979C12.0298 16.0559 13.4178 17.4425 16.2665 17.6755C18.7486 17.8783 20.8244 16.9426 22.6357 15.4117C24.3364 13.9705 25.9133 12.3745 27.5545 10.8578C27.9743 10.4598 28.4224 10.0925 28.8952 9.75888C29.9345 9.0505 31.1316 9.4759 31.2875 10.7021C31.4238 11.7934 31.3951 12.899 31.2025 13.9818C30.8425 15.9626 29.9411 17.7623 28.8914 19.4761L28.8858 19.4865Z" fill="white"/>
<path d="M21.0947 29.4989C21.5879 28.4953 22.0783 27.5435 22.5243 26.5748C22.7831 26.0089 23.0912 25.8985 23.6127 26.2617L27.4535 28.8782C27.8446 29.1452 28.0355 29.514 27.821 29.963C27.2333 31.1948 26.6249 32.4154 25.9881 33.7058C25.9628 33.7573 25.9266 33.8027 25.8821 33.839C25.8376 33.8754 25.7858 33.9016 25.7302 33.9161C25.6746 33.9306 25.6165 33.933 25.5599 33.923C25.5033 33.9131 25.4495 33.8911 25.4022 33.8585L20.8368 30.7232C20.6176 31.1137 20.4503 31.4005 20.2944 31.6938C19.9165 32.4116 19.5244 33.1275 19.1606 33.8538C18.9339 34.3047 18.675 34.3056 18.2895 34.0302C16.9422 33.0691 15.5703 32.1437 14.2381 31.1618C14.0727 31.0401 13.9631 30.6109 14.0491 30.4214C14.582 29.2225 15.1914 28.0585 15.7432 26.8682C15.9869 26.3409 16.2893 26.3098 16.7305 26.6041C18.1412 27.5464 19.5622 28.483 21.0947 29.4989Z" fill="white"/>
<path d="M36.7215 37.8796V40H36.4381V37.8796H35.6826V37.6287H37.477V37.8796H36.7215Z" fill="#787878"/>
<path d="M39.7884 38.0022H39.7705L39.5702 38.3993L39.0036 39.4321L38.4369 38.3993L38.2357 38.0022H38.2187V40H37.9401V37.6287H38.3179L38.9989 38.9058H39.0159L39.6996 37.6287H40.0671V40H39.7837L39.7884 38.0022Z" fill="#787878"/>
<path d="M59.0088 29.6791V22.3681L52.616 11.1208H56.0524L60.5801 19.3903H60.6604L65.1616 11.1208H68.4686L62.0219 22.3152V29.681L59.0088 29.6791Z" fill="#303038"/>
<path d="M80.0248 29.679C79.2614 29.679 78.6753 29.4621 78.2665 29.0282C77.8462 28.5682 77.5849 27.9856 77.521 27.3662H77.3878C77.1213 28.234 76.6329 28.8899 75.9223 29.3338C75.2118 29.7778 74.3504 29.9979 73.3382 29.9941C71.9002 29.9941 70.795 29.6218 70.0228 28.8773C69.2505 28.1327 68.8644 27.131 68.8644 25.8721C68.8644 24.4887 69.3658 23.4511 70.3686 22.7594C71.3713 22.0677 72.8409 21.7219 74.7772 21.7219H77.281V20.5522C77.281 19.7002 77.0501 19.044 76.5884 18.5837C76.1267 18.1234 75.4077 17.8933 74.4314 17.8933C73.6125 17.8933 72.9464 18.0703 72.433 18.4243C71.9122 18.7855 71.4687 19.2466 71.1282 19.7807L69.3963 18.2177C69.8731 17.4231 70.5416 16.7603 71.3408 16.2897C72.1748 15.7867 73.267 15.5352 74.6175 15.5352C76.4108 15.5352 77.7872 15.9514 78.7465 16.784C79.7058 17.6165 80.1851 18.8132 80.1845 20.374V27.3143H81.65V29.6809L80.0248 29.679ZM74.1668 27.7925C75.0732 27.7925 75.8193 27.5932 76.4051 27.1945C76.9909 26.7959 77.2839 26.2614 77.2839 25.591V23.5942H74.8339C72.827 23.5942 71.8236 24.2149 71.8236 25.4562V25.9344C71.8236 26.555 72.0324 27.0203 72.4501 27.3304C72.8677 27.6404 73.439 27.7938 74.164 27.7907L74.1668 27.7925Z" fill="#303038"/>
<path d="M83.5397 15.8521H86.3638L87.7753 21.6483L89.0272 26.887H89.1076L90.5456 21.6483L92.2236 15.8521H94.8352L96.5359 21.6483L98.0013 26.887H98.0816L99.3099 21.6483L100.748 15.8521H103.439L99.7096 29.679H96.4319L94.6207 23.3773L93.502 19.4949H93.4491L92.3569 23.3773L90.5182 29.679H87.3228L83.5397 15.8521Z" fill="#303038"/>
<path d="M106.74 29.679V15.852H109.644V18.1385H109.778C109.919 17.7861 110.092 17.4479 110.297 17.1283C110.499 16.8111 110.751 16.5283 111.043 16.2906C111.352 16.0424 111.705 15.8531 112.082 15.7323C112.535 15.5916 113.007 15.5244 113.481 15.5332C114.365 15.5174 115.234 15.7571 115.985 16.2237C116.713 16.6852 117.246 17.3946 117.582 18.3516H117.663C117.924 17.554 118.427 16.857 119.102 16.3567C119.812 15.8077 120.725 15.5332 121.842 15.5332C123.227 15.5332 124.302 15.9983 125.065 16.9283C125.827 17.8583 126.209 19.1836 126.211 20.904V29.6762H123.307V21.2464C123.307 20.1831 123.103 19.381 122.694 18.8402C122.285 18.2995 121.637 18.0293 120.749 18.03C120.389 18.0284 120.031 18.0776 119.685 18.1762C119.363 18.2656 119.06 18.4143 118.793 18.6148C118.532 18.8141 118.317 19.0681 118.165 19.359C118.001 19.6799 117.919 20.0364 117.926 20.3966V29.6762H115.023V21.2464C115.023 19.1021 114.179 18.03 112.493 18.03C112.137 18.0302 111.783 18.0794 111.441 18.1762C111.11 18.2655 110.799 18.4141 110.522 18.6148C110.242 18.8188 110.016 19.0875 109.862 19.3978C109.709 19.7081 109.634 20.0508 109.642 20.3966V29.6762L106.74 29.679Z" fill="#303038"/>
<path d="M147.858 25.112C147.858 26.0133 147.641 26.854 147.208 27.634C146.775 28.3967 146.116 29.012 145.232 29.48C144.348 29.948 143.265 30.182 141.982 30.182C140.734 30.182 139.616 29.9653 138.628 29.532C137.64 29.0813 136.851 28.4573 136.262 27.66C135.673 26.8627 135.335 25.944 135.248 24.904H138.42C138.507 25.7013 138.845 26.386 139.434 26.958C140.041 27.53 140.847 27.816 141.852 27.816C142.753 27.816 143.447 27.5733 143.932 27.088C144.435 26.6027 144.686 25.9787 144.686 25.216C144.686 24.5573 144.504 24.02 144.14 23.604C143.776 23.1707 143.325 22.8327 142.788 22.59C142.251 22.3473 141.514 22.07 140.578 21.758C139.434 21.394 138.498 21.03 137.77 20.666C137.059 20.302 136.453 19.7733 135.95 19.08C135.447 18.3867 135.196 17.4767 135.196 16.35C135.196 15.362 135.439 14.4953 135.924 13.75C136.409 13.0047 137.103 12.4327 138.004 12.034C138.905 11.618 139.945 11.41 141.124 11.41C142.996 11.41 144.478 11.8607 145.57 12.762C146.679 13.6633 147.312 14.842 147.468 16.298H144.27C144.149 15.6047 143.819 15.0153 143.282 14.53C142.762 14.0273 142.043 13.776 141.124 13.776C140.292 13.776 139.625 13.9927 139.122 14.426C138.619 14.842 138.368 15.4487 138.368 16.246C138.368 16.87 138.541 17.39 138.888 17.806C139.235 18.2047 139.668 18.5253 140.188 18.768C140.725 18.9933 141.453 19.262 142.372 19.574C143.533 19.938 144.478 20.3107 145.206 20.692C145.951 21.056 146.575 21.5933 147.078 22.304C147.598 23.0147 147.858 23.9507 147.858 25.112ZM158.027 27.426V30H156.207C154.682 30 153.521 29.636 152.723 28.908C151.943 28.1627 151.553 26.932 151.553 25.216V18.196H149.499V15.674H151.553V12.112H154.543V15.674H158.001V18.196H154.543V25.268C154.543 26.0827 154.691 26.646 154.985 26.958C155.297 27.27 155.835 27.426 156.597 27.426H158.027ZM167.356 15.492C168.742 15.492 169.99 15.7867 171.1 16.376C172.209 16.9653 173.076 17.8147 173.7 18.924C174.324 20.0333 174.636 21.3333 174.636 22.824C174.636 24.332 174.324 25.6407 173.7 26.75C173.076 27.8593 172.209 28.7087 171.1 29.298C169.99 29.8873 168.742 30.182 167.356 30.182C165.969 30.182 164.721 29.8873 163.612 29.298C162.52 28.7087 161.653 27.8593 161.012 26.75C160.388 25.6233 160.076 24.3147 160.076 22.824C160.076 21.3333 160.388 20.0333 161.012 18.924C161.653 17.8147 162.52 16.9653 163.612 16.376C164.721 15.7867 165.969 15.492 167.356 15.492ZM167.356 18.066C166.593 18.066 165.891 18.2393 165.25 18.586C164.608 18.9327 164.088 19.47 163.69 20.198C163.308 20.9087 163.118 21.784 163.118 22.824C163.118 23.8813 163.308 24.7653 163.69 25.476C164.088 26.1867 164.608 26.7153 165.25 27.062C165.891 27.4087 166.593 27.582 167.356 27.582C168.118 27.582 168.82 27.4087 169.462 27.062C170.103 26.7153 170.614 26.1867 170.996 25.476C171.394 24.7653 171.594 23.8813 171.594 22.824C171.594 21.784 171.394 20.9087 170.996 20.198C170.614 19.47 170.103 18.9327 169.462 18.586C168.82 18.2393 168.118 18.066 167.356 18.066ZM180.449 18.482C180.935 17.546 181.628 16.8093 182.529 16.272C183.431 15.7173 184.471 15.44 185.649 15.44V18.664H184.765C183.465 18.664 182.417 18.9847 181.619 19.626C180.839 20.25 180.449 21.29 180.449 22.746V30H177.485V15.674H180.449V18.482ZM201.182 22.148C201.182 22.6333 201.148 23.058 201.078 23.422H190.054C190.106 24.8953 190.514 25.9873 191.276 26.698C192.039 27.4087 192.984 27.764 194.11 27.764C195.098 27.764 195.93 27.5127 196.606 27.01C197.3 26.5073 197.724 25.84 197.88 25.008H201.052C200.862 26.0133 200.463 26.906 199.856 27.686C199.25 28.466 198.461 29.0813 197.49 29.532C196.52 29.9653 195.436 30.182 194.24 30.182C192.854 30.182 191.623 29.8873 190.548 29.298C189.491 28.7087 188.659 27.8593 188.052 26.75C187.446 25.6407 187.142 24.332 187.142 22.824C187.142 21.3333 187.446 20.0333 188.052 18.924C188.659 17.8147 189.491 16.9653 190.548 16.376C191.623 15.7867 192.854 15.492 194.24 15.492C195.644 15.492 196.866 15.7867 197.906 16.376C198.964 16.948 199.77 17.7453 200.324 18.768C200.896 19.7733 201.182 20.9 201.182 22.148ZM198.192 22.07C198.227 21.134 198.062 20.354 197.698 19.73C197.352 19.0887 196.866 18.6207 196.242 18.326C195.636 18.014 194.968 17.858 194.24 17.858C193.079 17.858 192.108 18.2133 191.328 18.924C190.548 19.6347 190.124 20.6833 190.054 22.07H198.192Z" fill="#007AEA"/>
</g>
<defs>
<clipPath id="clip0_1_323">
<rect width="208" height="40" fill="white"/>
</clipPath>
</defs>
</svg>
